<?xml version="1.0" encoding="utf-8"?>
<!-- Generator: Adobe Illustrator 25.0.0, SVG Export Plug-In . SVG Version: 6.00 Build 0)  -->
<svg version="1.1" id="Capa_1" xmlns="http://www.w3.org/2000/svg" xmlns:xlink="http://www.w3.org/1999/xlink" x="0px" y="0px"
	 viewBox="0 0 648 648" style="enable-background:new 0 0 648 648;" xml:space="preserve">
<style type="text/css">
	.st0{fill:#143547;}
</style>
<g>
	<g>
		<path class="st0" d="M499.5,256.49H121.49c-22.33,0-40.5,18.17-40.5,40.5v27c0,96.34,53.22,183.71,138.86,228.02
			c6.62,3.4,14.77,0.84,18.2-5.81c3.4-6.62,0.84-14.77-5.81-18.2c-76.63-39.64-124.26-117.8-124.26-204.02v-27
			c0-7.45,6.05-13.5,13.5-13.5H499.5c7.45,0,13.5,6.05,13.5,13.5v27c0,86.21-47.63,164.38-124.28,203.99
			c-6.64,3.43-9.21,11.58-5.81,18.2c2.4,4.64,7.13,7.32,12.01,7.32c2.11,0,4.21-0.49,6.18-1.51C486.78,507.7,540,420.35,540,323.99
			v-27C540,274.66,521.83,256.49,499.5,256.49z"/>
	</g>
</g>
<g>
	<g>
		<path class="st0" d="M620,534.81c-2.11-5.05-7.02-8.34-12.47-8.34H13.51c-5.45,0-10.37,3.3-12.47,8.34
			c-2.11,5.05-0.95,10.85,2.92,14.71l30.27,30.3c17.87,17.85,41.58,27.68,66.83,27.68h418.89c25.25,0,48.98-9.83,66.88-27.68
			l30.27-30.3C620.95,545.67,622.11,539.86,620,534.81z M567.7,560.73c-12.74,12.74-29.73,19.76-47.74,19.76H101.05
			c-18.01,0-34.99-7.02-47.74-19.76l-7.24-7.24h528.86L567.7,560.73z"/>
	</g>
</g>
<g>
	<g>
		<path class="st0" d="M621.89,320.24c-36.37-23.38-94.47,2-100.98,4.94c-6.78,3.1-9.8,11.1-6.7,17.9c3.1,6.8,11.07,9.8,17.9,6.7
			c13.01-5.91,54.76-19.93,75.17-6.78c9.21,5.91,13.72,17.39,13.72,34.99c0,54.05-109.03,86.73-151.12,94.77l-9.56,1.89
			c-7.32,1.43-12.07,8.53-10.64,15.85c1.27,6.43,6.91,10.88,13.23,10.88c0.86,0,1.73-0.08,2.62-0.27l9.48-1.86
			C482.08,497.9,648,465.37,648,377.99C648,350.83,639.2,331.42,621.89,320.24z"/>
	</g>
</g>
<g>
	<g>
		<path class="st0" d="M415.61,143.41c21.95-27.43,21.95-70.39,0-97.82c-4.67-5.83-13.12-6.8-18.98-2.11
			c-5.83,4.67-6.78,13.15-2.11,18.98c13.91,17.36,13.91,46.71-0.03,64.13c-21.98,27.43-21.98,70.39,0,97.82
			c2.67,3.35,6.59,5.08,10.56,5.08c2.94,0,5.94-0.97,8.42-2.97c5.83-4.67,6.78-13.18,2.11-18.98
			C401.65,190.18,401.65,160.83,415.61,143.41z"/>
	</g>
</g>
<g>
	<g>
		<path class="st0" d="M334.5,143.41c21.98-27.43,21.98-70.39,0-97.82c-4.64-5.83-13.15-6.78-18.98-2.11
			c-5.83,4.67-6.78,13.18-2.11,18.98c13.93,17.36,13.93,46.71-0.03,64.13c-21.95,27.43-21.95,70.39,0,97.82
			c2.67,3.35,6.59,5.08,10.56,5.08c2.94,0,5.91-0.97,8.42-2.97c5.83-4.67,6.78-13.15,2.11-18.98
			C320.56,190.18,320.56,160.83,334.5,143.41z"/>
	</g>
</g>
<g>
	<g>
		<path class="st0" d="M253.6,143.44c21.95-27.43,21.95-70.39,0-97.82c-4.64-5.83-13.12-6.8-18.98-2.11
			c-5.81,4.64-6.75,13.15-2.11,18.95c13.91,17.36,13.91,46.71-0.03,64.13c-21.98,27.43-21.98,70.39,0,97.82
			c2.67,3.35,6.59,5.08,10.56,5.08c2.94,0,5.94-0.97,8.42-2.94c5.83-4.67,6.78-13.18,2.11-18.98
			C239.64,190.18,239.64,160.85,253.6,143.44z"/>
	</g>
</g>
</svg>
