<?xml version="1.0" encoding="utf-8"?>
<!-- Generator: Adobe Illustrator 25.0.0, SVG Export Plug-In . SVG Version: 6.00 Build 0)  -->
<svg version="1.1" id="Layer_1" xmlns="http://www.w3.org/2000/svg" xmlns:xlink="http://www.w3.org/1999/xlink" x="0px" y="0px"
	 viewBox="0 0 24 24" style="enable-background:new 0 0 24 24;" xml:space="preserve">
<style type="text/css">
	.st0{fill:#FFFFFF;}
	.st1{fill:#3C1264;}
</style>
<circle class="st0" cx="12" cy="8" r="6"/>
<path class="st1" d="M12,0C7.8,0,4,3.4,4,7.6c0,4.2,3.47,9.21,8,16.4c4.53-7.19,8-12.2,8-16.4C20,3.4,16.2,0,12,0z M12,14
	c-3.31,0-6-2.69-6-6s2.69-6,6-6c3.31,0,6,2.69,6,6S15.31,14,12,14z"/>
<g>
	<g>
		<g>
			<path class="st1" d="M14.48,6.29H9.14c-0.32,0-0.57,0.25-0.57,0.57v0.38c0,1.36,0.75,2.59,1.96,3.22
				c0.09,0.05,0.21,0.01,0.26-0.08c0.05-0.09,0.02-0.21-0.08-0.26C9.62,9.56,8.95,8.46,8.95,7.24V6.86c0-0.11,0.09-0.19,0.2-0.19
				h5.33c0.11,0,0.19,0.09,0.19,0.19v0.38c0,1.22-0.67,2.32-1.76,2.88c-0.09,0.05-0.13,0.16-0.08,0.26c0.03,0.07,0.1,0.1,0.17,0.1
				c0.03,0,0.06-0.01,0.09-0.02c1.21-0.62,1.96-1.86,1.96-3.22V6.86C15.05,6.54,14.79,6.29,14.48,6.29z"/>
		</g>
	</g>
	<g>
		<g>
			<path class="st1" d="M16.17,10.21c-0.03-0.07-0.1-0.12-0.17-0.12H7.62c-0.08,0-0.15,0.05-0.18,0.12
				c-0.03,0.07-0.01,0.15,0.04,0.21l0.43,0.43c0.25,0.25,0.59,0.39,0.95,0.39h5.91c0.36,0,0.69-0.14,0.94-0.39l0.43-0.43
				C16.19,10.37,16.21,10.28,16.17,10.21z M15.44,10.58c-0.18,0.18-0.42,0.28-0.68,0.28H8.86c-0.26,0-0.49-0.1-0.67-0.28l-0.1-0.1
				h7.46L15.44,10.58z"/>
		</g>
	</g>
	<g>
		<g>
			<path class="st1" d="M16.2,7.19c-0.51-0.33-1.33,0.03-1.42,0.07c-0.09,0.04-0.14,0.16-0.09,0.25c0.04,0.1,0.16,0.14,0.25,0.1
				c0.19-0.09,0.77-0.28,1.06-0.1c0.13,0.08,0.19,0.25,0.19,0.49c0,0.76-1.54,1.22-2.13,1.34l-0.13,0.03
				c-0.1,0.02-0.17,0.12-0.15,0.22c0.02,0.09,0.1,0.15,0.19,0.15c0.01,0,0.03,0,0.04,0l0.13-0.03c0.1-0.02,2.44-0.48,2.44-1.71
				C16.57,7.62,16.45,7.34,16.2,7.19z"/>
		</g>
	</g>
	<g>
		<g>
			<path class="st1" d="M13.29,4.69c0.31-0.39,0.31-0.99,0-1.38c-0.07-0.08-0.19-0.1-0.27-0.03c-0.08,0.07-0.1,0.19-0.03,0.27
				c0.2,0.25,0.2,0.66,0,0.9c-0.31,0.39-0.31,0.99,0,1.38c0.04,0.05,0.09,0.07,0.15,0.07c0.04,0,0.08-0.01,0.12-0.04
				c0.08-0.06,0.09-0.18,0.03-0.27C13.1,5.35,13.1,4.94,13.29,4.69z"/>
		</g>
	</g>
	<g>
		<g>
			<path class="st1" d="M12.15,4.69c0.31-0.39,0.31-0.99,0-1.38c-0.06-0.08-0.18-0.1-0.27-0.03c-0.08,0.07-0.09,0.19-0.03,0.27
				c0.2,0.25,0.2,0.66,0,0.9c-0.31,0.39-0.31,0.99,0,1.38C11.89,5.88,11.94,5.9,12,5.9c0.05,0,0.09-0.01,0.12-0.04
				c0.08-0.06,0.1-0.18,0.03-0.27C11.95,5.35,11.95,4.94,12.15,4.69z"/>
		</g>
	</g>
	<g>
		<g>
			<path class="st1" d="M11,4.69c0.31-0.39,0.31-0.99,0-1.38c-0.06-0.08-0.18-0.1-0.27-0.03c-0.08,0.07-0.09,0.19-0.03,0.27
				c0.2,0.25,0.2,0.66,0,0.9c-0.31,0.39-0.31,0.99,0,1.38c0.04,0.05,0.09,0.07,0.15,0.07c0.04,0,0.09-0.01,0.12-0.04
				C11.06,5.8,11.07,5.68,11,5.6C10.81,5.35,10.81,4.94,11,4.69z"/>
		</g>
	</g>
</g>
</svg>
