<?xml version="1.0" encoding="utf-8"?>
<!-- Generator: Adobe Illustrator 25.0.0, SVG Export Plug-In . SVG Version: 6.00 Build 0)  -->
<svg version="1.1" id="Capa_1" xmlns="http://www.w3.org/2000/svg" xmlns:xlink="http://www.w3.org/1999/xlink" x="0px" y="0px"
	 viewBox="0 0 648 648" style="enable-background:new 0 0 648 648;" xml:space="preserve">
<style type="text/css">
	.st0{fill:#143547;}
</style>
<g>
	<g>
		<path class="st0" d="M324,0C145.21,0,0,145.21,0,324c0,178.79,145.21,324,324,324c178.79,0,324-145.21,324-324
			C648,145.21,502.79,0,324,0z M324,619.89C160.83,619.89,28.11,487.17,28.11,324S160.83,28.11,324,28.11
			c163.17,0,295.89,132.72,295.89,295.89S487.17,619.89,324,619.89z"/>
	</g>
</g>
<g>
	<g>
		<path class="st0" d="M492.64,253.73h-98.37v-98.37c0-7.81-6.25-14.05-14.05-14.05H267.79c-7.81,0-14.05,6.25-14.05,14.05v98.37
			h-98.37c-7.81,0-14.05,6.25-14.05,14.05v112.42c0,7.81,6.25,14.05,14.05,14.05h98.37v98.37c0,7.81,6.25,14.05,14.05,14.05h112.42
			c7.81,0,14.05-6.25,14.05-14.05v-98.37h98.37c7.81,0,14.05-6.25,14.05-14.05V267.79C505.91,259.98,499.66,253.73,492.64,253.73z
			 M479.36,366.16h-0.78h-98.37c-7.81,0-14.05,6.25-14.05,14.05v98.37h-84.32v-98.37c0-7.81-6.25-14.05-14.05-14.05h-98.37v-84.32
			h98.37c7.81,0,14.05-6.25,14.05-14.05v-98.37h85.1v98.37c0,7.81,6.25,14.05,14.05,14.05h98.37V366.16z"/>
	</g>
</g>
</svg>
