<?xml version="1.0" encoding="utf-8"?>
<!-- Generator: Adobe Illustrator 25.0.0, SVG Export Plug-In . SVG Version: 6.00 Build 0)  -->
<svg version="1.1" id="Layer_1" xmlns="http://www.w3.org/2000/svg" xmlns:xlink="http://www.w3.org/1999/xlink" x="0px" y="0px"
	 viewBox="0 0 24 24" style="enable-background:new 0 0 24 24;" xml:space="preserve">
<style type="text/css">
	.st0{fill:#FFFFFF;}
	.st1{fill:#090B60;}
</style>
<circle class="st0" cx="12" cy="8" r="6"/>
<path class="st1" d="M12,0C7.8,0,4,3.4,4,7.6c0,4.2,3.47,9.21,8,16.4c4.53-7.19,8-12.2,8-16.4C20,3.4,16.2,0,12,0z M12,14
	c-3.31,0-6-2.69-6-6s2.69-6,6-6c3.31,0,6,2.69,6,6S15.31,14,12,14z"/>
<g>
	<g>
		<g>
			<path class="st1" d="M12,3C9.24,3,7,5.24,7,8c0,2.76,2.24,5,5,5c2.76,0,5-2.24,5-5C17,5.24,14.76,3,12,3z M12,12.57
				c-2.52,0-4.57-2.05-4.57-4.57c0-2.52,2.05-4.57,4.57-4.57c2.52,0,4.57,2.05,4.57,4.57C16.57,10.52,14.52,12.57,12,12.57z"/>
		</g>
	</g>
	<g>
		<g>
			<path class="st1" d="M14.6,6.92h-1.52V5.4c0-0.12-0.1-0.22-0.22-0.22h-1.73c-0.12,0-0.22,0.1-0.22,0.22v1.52H9.4
				c-0.12,0-0.22,0.1-0.22,0.22v1.74c0,0.12,0.1,0.22,0.22,0.22h1.52v1.52c0,0.12,0.1,0.22,0.22,0.22h1.73
				c0.12,0,0.22-0.1,0.22-0.22V9.08h1.52c0.12,0,0.22-0.1,0.22-0.22V7.13C14.81,7.01,14.71,6.92,14.6,6.92z M14.4,8.65h-0.01h-1.52
				c-0.12,0-0.22,0.1-0.22,0.22v1.52h-1.3V8.87c0-0.12-0.1-0.22-0.22-0.22H9.61v-1.3h1.52c0.12,0,0.22-0.1,0.22-0.22V5.61h1.31v1.52
				c0,0.12,0.1,0.22,0.22,0.22h1.52V8.65z"/>
		</g>
	</g>
</g>
</svg>
