<?xml version="1.0" encoding="utf-8"?>
<!-- Generator: Adobe Illustrator 25.0.0, SVG Export Plug-In . SVG Version: 6.00 Build 0)  -->
<svg version="1.1" id="Calque_1" xmlns="http://www.w3.org/2000/svg" xmlns:xlink="http://www.w3.org/1999/xlink" x="0px" y="0px"
	 viewBox="0 0 600 460.38" style="enable-background:new 0 0 600 460.38;" xml:space="preserve">
<style type="text/css">
	.st0{fill:#FFFFFF;}
	.st1{fill:#D5B167;}
	.st2{fill:#1E2C38;}
	.st3{fill:url(#SVGID_1_);}
	.st4{fill:url(#SVGID_2_);}
	.st5{fill:url(#SVGID_3_);}
	.st6{fill:url(#SVGID_4_);}
	.st7{fill:url(#SVGID_5_);}
	.st8{fill:url(#SVGID_6_);}
	.st9{fill:url(#SVGID_7_);}
	.st10{fill:url(#SVGID_8_);}
	.st11{fill:url(#SVGID_9_);}
	.st12{fill:url(#SVGID_10_);}
	.st13{fill:url(#SVGID_11_);}
</style>
<circle class="st0" cx="300.13" cy="153.46" r="115.1"/>
<path class="st1" d="M300.13,0C219.6,0,146.66,65.27,146.66,145.83c0,80.52,66.55,176.68,153.46,314.55
	c86.92-137.87,153.46-234.03,153.46-314.55C453.59,65.27,380.68,0,300.13,0z M300.13,268.56c-63.57,0-115.1-51.52-115.1-115.1
	s51.52-115.1,115.1-115.1c63.58,0,115.1,51.52,115.1,115.1S363.71,268.56,300.13,268.56z"/>
<g>
	<g>
		<g>
			<g>
				<path class="st2" d="M9.33,302.87v50.31H0v-50.31H9.33z M44.72,302.87l-21.47,23.47l23.72,26.84H34.06l-19.46-23.5v-6.05
					l18.72-20.76H44.72z"/>
				<path class="st2" d="M84.94,302.87v8.03H59.75v12.67h24v8.34h-24.1v13.2h25.79v8.09H50.49v-50.31H84.94z"/>
				<path class="st2" d="M94.05,353.18v-50.31h9.32l26.57,36.66v-36.66h8.97v50.31h-9.32l-26.57-37.44v37.44H94.05z"/>
				<path class="st2" d="M149.47,353.18v-50.31h9.32l26.57,36.66v-36.66h8.97v50.31h-9.32l-26.56-37.44v37.44H149.47z"/>
				<path class="st2" d="M239.34,302.87v8.03h-25.19v12.67h24v8.34h-24.1v13.2h25.79v8.09h-34.94v-50.31H239.34z"/>
				<path class="st2" d="M248.45,353.18v-50.31h19.7c16.66,0,24.98,7.93,24.98,23.79c0,17.68-8.33,26.53-24.98,26.53H248.45z
					 M268.15,345.09c10.44,0,15.66-6.15,15.66-18.44c0-10.46-5.22-15.7-15.66-15.7h-10.38v34.13H268.15z"/>
				<path class="st2" d="M296.66,302.87h10.03l14.14,24.24l13.3-24.24h9.68l-18.51,32.72v17.59h-9.33v-17.59L296.66,302.87z"/>
				<path class="st2" d="M402.74,351.07c-4.34,1.64-9.26,2.46-14.78,2.46c-18.06,0-27.09-8.74-27.09-26.21
					c0-16.54,9.03-24.81,27.09-24.81c5.51,0,10.44,0.82,14.78,2.46v8.44c-4.34-1.87-9.03-2.82-14.07-2.82
					c-12.08,0-18.12,5.58-18.12,16.72c0,12.08,6.04,18.12,18.12,18.12c5.04,0,9.73-0.94,14.07-2.81V351.07z"/>
				<path class="st2" d="M420.87,302.87v50.31h-9.33v-50.31H420.87z"/>
				<path class="st2" d="M431.42,353.11v-50.25h22.87c10.28,0,15.41,4.49,15.41,13.48c0,6.08-4,11.11-12,15.1l15.94,21.74h-11.75
					l-15.31-21.92v-4.25c8.91-1.53,13.37-4.99,13.37-10.38c0-3.71-2.09-5.56-6.27-5.56h-12.77v42.05H431.42z"/>
				<path class="st2" d="M518.16,351.07c-4.34,1.64-9.26,2.46-14.78,2.46c-18.06,0-27.09-8.74-27.09-26.21
					c0-16.54,9.03-24.81,27.09-24.81c5.51,0,10.44,0.82,14.78,2.46v8.44c-4.34-1.87-9.03-2.82-14.07-2.82
					c-12.08,0-18.12,5.58-18.12,16.72c0,12.08,6.04,18.12,18.12,18.12c5.04,0,9.74-0.94,14.07-2.81V351.07z"/>
				<path class="st2" d="M536.28,302.87v42.22h19.99v8.09h-29.31v-50.31H536.28z"/>
				<path class="st2" d="M599.51,302.87v8.03h-25.19v12.67h24v8.34h-24.1v13.2H600v8.09h-34.94v-50.31H599.51z"/>
				<path class="st2" d="M117.39,416.38c-3.01,0.93-6.11,1.39-9.28,1.39c-11.59,0-17.39-5.76-17.39-17.27
					c0-10.9,5.8-16.35,17.39-16.35c3.17,0,6.26,0.46,9.28,1.39v2.09c-3.01-0.93-5.95-1.39-8.81-1.39
					c-10.28,0-15.42,4.75-15.42,14.26c0,10.13,5.14,15.19,15.42,15.19c2.86,0,5.8-0.46,8.81-1.39V416.38z"/>
				<path class="st2" d="M127.85,401.01c0-11.24,5.55-16.86,16.65-16.86c10.93,0,16.4,5.62,16.4,16.86
					c0,11.18-5.47,16.77-16.4,16.77C133.4,417.77,127.85,412.19,127.85,401.01z M144.5,415.69c9.15,0,13.73-4.94,13.73-14.82
					c0-9.75-4.58-14.63-13.73-14.63c-9.32,0-13.98,4.88-13.98,14.63C130.52,410.75,135.18,415.69,144.5,415.69z"/>
				<path class="st2" d="M171.36,417.54v-33.16h3.13l22.15,29.04v-29.04h2.2v33.16h-1.97l-23.31-30.43v30.43H171.36z"/>
				<path class="st2" d="M209.3,417.54v-33.16h11.83c10.82,0,16.23,5.23,16.23,15.68c0,11.66-5.49,17.49-16.46,17.49H209.3z
					 M220.89,415.46c9.2,0,13.8-5.14,13.8-15.4c0-9.06-4.6-13.59-13.8-13.59h-9.16v28.99H220.89z"/>
				<path class="st2" d="M247.82,401.01c0-11.24,5.55-16.86,16.65-16.86c10.93,0,16.4,5.62,16.4,16.86
					c0,11.18-5.47,16.77-16.4,16.77C253.37,417.77,247.82,412.19,247.82,401.01z M264.47,415.69c9.15,0,13.73-4.94,13.73-14.82
					c0-9.75-4.58-14.63-13.73-14.63c-9.32,0-13.98,4.88-13.98,14.63C250.49,410.75,255.15,415.69,264.47,415.69z"/>
				<path class="st2" d="M291.33,417.54v-33.16h2.43l14.96,30.31l14.03-30.31h2.2v33.16h-2.2v-28.69l-13.17,28.69h-1.99
					l-14.06-28.92v28.92H291.33z"/>
				<path class="st2" d="M337.85,384.38v33.16h-2.44v-33.16H337.85z"/>
				<path class="st2" d="M388.69,384.38v33.16h-2.44v-33.16H388.69z"/>
				<path class="st2" d="M348.31,417.54v-33.16h3.13l22.15,29.04v-29.04h2.2v33.16h-1.97l-23.31-30.43v30.43H348.31z"/>
				<path class="st2" d="M399.15,404.74v-20.36h2.44v20.36c0,7.3,3.63,10.95,10.9,10.95c7.26,0,10.9-3.65,10.9-10.95v-20.36h2.44
					v20.36c0,8.69-4.45,13.03-13.33,13.03C403.6,417.77,399.15,413.43,399.15,404.74z"/>
				<path class="st2" d="M436.28,417.54v-33.16h2.44l14.96,30.31l14.03-30.31h2.21v33.16h-2.21v-28.69l-13.17,28.69h-1.99
					l-14.06-28.92v28.92H436.28z"/>
				<path class="st2" d="M481.3,416.38v-2.55c3.48,1.24,7.31,1.86,11.5,1.86c6.94,0,10.41-2.63,10.41-7.88c0-3.87-2.26-5.8-6.77-5.8
					h-6.82c-6.17,0-9.25-2.78-9.25-8.35c0-6.34,4.52-9.51,13.57-9.51c3.71,0,7.31,0.46,10.79,1.39v2.32
					c-3.48-1.08-7.08-1.62-10.79-1.62c-7.42,0-11.13,2.47-11.13,7.42c0,4.02,2.27,6.03,6.82,6.03h6.82c6.13,0,9.21,2.71,9.21,8.12
					c0,6.65-4.28,9.97-12.85,9.97C488.61,417.77,484.78,417.31,481.3,416.38z"/>
			</g>
		</g>
	</g>
	<rect x="525.91" y="401.08" class="st2" width="74.09" height="2.09"/>
	<rect x="0" y="401.08" class="st2" width="74.09" height="2.09"/>
</g>
<g>
	<linearGradient id="SVGID_1_" gradientUnits="userSpaceOnUse" x1="225.3662" y1="55.6453" x2="399.0991" y2="229.3781">
		<stop  offset="0" style="stop-color:#BE782A"/>
		<stop  offset="0.0712" style="stop-color:#CA8A35"/>
		<stop  offset="0.1982" style="stop-color:#DEA94F"/>
		<stop  offset="0.3161" style="stop-color:#EEC265"/>
		<stop  offset="0.4203" style="stop-color:#FBD474"/>
		<stop  offset="0.5" style="stop-color:#FFDA79"/>
		<stop  offset="0.5797" style="stop-color:#FBD474"/>
		<stop  offset="0.6839" style="stop-color:#EEC265"/>
		<stop  offset="0.8018" style="stop-color:#DEA94F"/>
		<stop  offset="0.9288" style="stop-color:#CA8A35"/>
		<stop  offset="1" style="stop-color:#BE782A"/>
	</linearGradient>
	<path class="st3" d="M278.59,55.91c-5.42,1.19-10.65,2.82-15.7,4.84v85.39l15.7-15.69V55.91z"/>
	<linearGradient id="SVGID_2_" gradientUnits="userSpaceOnUse" x1="170.2556" y1="110.7588" x2="343.9836" y2="284.4868">
		<stop  offset="0" style="stop-color:#BE782A"/>
		<stop  offset="0.0712" style="stop-color:#CA8A35"/>
		<stop  offset="0.1982" style="stop-color:#DEA94F"/>
		<stop  offset="0.3161" style="stop-color:#EEC265"/>
		<stop  offset="0.4203" style="stop-color:#FBD474"/>
		<stop  offset="0.5" style="stop-color:#FFDA79"/>
		<stop  offset="0.5797" style="stop-color:#FBD474"/>
		<stop  offset="0.6839" style="stop-color:#EEC265"/>
		<stop  offset="0.8018" style="stop-color:#DEA94F"/>
		<stop  offset="0.9288" style="stop-color:#CA8A35"/>
		<stop  offset="1" style="stop-color:#BE782A"/>
	</linearGradient>
	<path class="st4" d="M262.89,246.09c5.04,2.02,10.28,3.66,15.7,4.84V176.4l-15.7-15.69V246.09z"/>
	<linearGradient id="SVGID_3_" gradientUnits="userSpaceOnUse" x1="249.3688" y1="31.6456" x2="423.0963" y2="205.3732">
		<stop  offset="0" style="stop-color:#BE782A"/>
		<stop  offset="0.0712" style="stop-color:#CA8A35"/>
		<stop  offset="0.1982" style="stop-color:#DEA94F"/>
		<stop  offset="0.3161" style="stop-color:#EEC265"/>
		<stop  offset="0.4203" style="stop-color:#FBD474"/>
		<stop  offset="0.5" style="stop-color:#FFDA79"/>
		<stop  offset="0.5797" style="stop-color:#FBD474"/>
		<stop  offset="0.6839" style="stop-color:#EEC265"/>
		<stop  offset="0.8018" style="stop-color:#DEA94F"/>
		<stop  offset="0.9288" style="stop-color:#CA8A35"/>
		<stop  offset="1" style="stop-color:#BE782A"/>
	</linearGradient>
	<path class="st5" d="M309.97,54.05c-3.28-0.33-6.61-0.51-9.97-0.51c-1.93,0-3.81,0.18-5.72,0.29v60.91l15.69-15.69V54.05z"/>
	<linearGradient id="SVGID_4_" gradientUnits="userSpaceOnUse" x1="176.3713" y1="104.6408" x2="350.1002" y2="278.3698">
		<stop  offset="0" style="stop-color:#BE782A"/>
		<stop  offset="0.0712" style="stop-color:#CA8A35"/>
		<stop  offset="0.1982" style="stop-color:#DEA94F"/>
		<stop  offset="0.3161" style="stop-color:#EEC265"/>
		<stop  offset="0.4203" style="stop-color:#FBD474"/>
		<stop  offset="0.5" style="stop-color:#FFDA79"/>
		<stop  offset="0.5797" style="stop-color:#FBD474"/>
		<stop  offset="0.6839" style="stop-color:#EEC265"/>
		<stop  offset="0.8018" style="stop-color:#DEA94F"/>
		<stop  offset="0.9288" style="stop-color:#CA8A35"/>
		<stop  offset="1" style="stop-color:#BE782A"/>
	</linearGradient>
	<path class="st6" d="M294.28,253.01c1.9,0.11,3.79,0.29,5.72,0.29c3.37,0,6.69-0.18,9.97-0.5v-45.01l-15.69-15.7V253.01z"/>
	<linearGradient id="SVGID_5_" gradientUnits="userSpaceOnUse" x1="185.0109" y1="96.0085" x2="358.7357" y2="269.7332">
		<stop  offset="0" style="stop-color:#BE782A"/>
		<stop  offset="0.0712" style="stop-color:#CA8A35"/>
		<stop  offset="0.1982" style="stop-color:#DEA94F"/>
		<stop  offset="0.3161" style="stop-color:#EEC265"/>
		<stop  offset="0.4203" style="stop-color:#FBD474"/>
		<stop  offset="0.5" style="stop-color:#FFDA79"/>
		<stop  offset="0.5797" style="stop-color:#FBD474"/>
		<stop  offset="0.6839" style="stop-color:#EEC265"/>
		<stop  offset="0.8018" style="stop-color:#DEA94F"/>
		<stop  offset="0.9288" style="stop-color:#CA8A35"/>
		<stop  offset="1" style="stop-color:#BE782A"/>
	</linearGradient>
	<path class="st7" d="M325.66,249.84c5.43-1.44,10.67-3.3,15.7-5.59v-5.08l-15.7-15.69V249.84z"/>
	<linearGradient id="SVGID_6_" gradientUnits="userSpaceOnUse" x1="270.7714" y1="10.246" x2="444.493" y2="183.9676">
		<stop  offset="0" style="stop-color:#BE782A"/>
		<stop  offset="0.0712" style="stop-color:#CA8A35"/>
		<stop  offset="0.1982" style="stop-color:#DEA94F"/>
		<stop  offset="0.3161" style="stop-color:#EEC265"/>
		<stop  offset="0.4203" style="stop-color:#FBD474"/>
		<stop  offset="0.5" style="stop-color:#FFDA79"/>
		<stop  offset="0.5797" style="stop-color:#FBD474"/>
		<stop  offset="0.6839" style="stop-color:#EEC265"/>
		<stop  offset="0.8018" style="stop-color:#DEA94F"/>
		<stop  offset="0.9288" style="stop-color:#CA8A35"/>
		<stop  offset="1" style="stop-color:#BE782A"/>
	</linearGradient>
	<path class="st8" d="M341.35,62.59c-5.02-2.29-10.27-4.15-15.7-5.59v26.37l15.7-15.69V62.59z"/>
	<linearGradient id="SVGID_7_" gradientUnits="userSpaceOnUse" x1="243.5588" y1="37.4568" x2="417.2856" y2="211.1835">
		<stop  offset="0" style="stop-color:#BE782A"/>
		<stop  offset="0.0712" style="stop-color:#CA8A35"/>
		<stop  offset="0.1982" style="stop-color:#DEA94F"/>
		<stop  offset="0.3161" style="stop-color:#EEC265"/>
		<stop  offset="0.4203" style="stop-color:#FBD474"/>
		<stop  offset="0.5" style="stop-color:#FFDA79"/>
		<stop  offset="0.5797" style="stop-color:#FBD474"/>
		<stop  offset="0.6839" style="stop-color:#EEC265"/>
		<stop  offset="0.8018" style="stop-color:#DEA94F"/>
		<stop  offset="0.9288" style="stop-color:#CA8A35"/>
		<stop  offset="1" style="stop-color:#BE782A"/>
	</linearGradient>
	<path class="st9" d="M370.62,82.8c-3.72-3.71-7.79-7.05-12.05-10.14l-80.77,80.77l80.77,80.77c4.26-3.09,8.33-6.43,12.05-10.15
		l-70.63-70.62L370.62,82.8z"/>
	<linearGradient id="SVGID_8_" gradientUnits="userSpaceOnUse" x1="254.1808" y1="26.8361" x2="427.9068" y2="200.5621">
		<stop  offset="0" style="stop-color:#BE782A"/>
		<stop  offset="0.0712" style="stop-color:#CA8A35"/>
		<stop  offset="0.1982" style="stop-color:#DEA94F"/>
		<stop  offset="0.3161" style="stop-color:#EEC265"/>
		<stop  offset="0.4203" style="stop-color:#FBD474"/>
		<stop  offset="0.5" style="stop-color:#FFDA79"/>
		<stop  offset="0.5797" style="stop-color:#FBD474"/>
		<stop  offset="0.6839" style="stop-color:#EEC265"/>
		<stop  offset="0.8018" style="stop-color:#DEA94F"/>
		<stop  offset="0.9288" style="stop-color:#CA8A35"/>
		<stop  offset="1" style="stop-color:#BE782A"/>
	</linearGradient>
	<path class="st10" d="M389.18,108.63c-2.44-4.84-5.25-9.44-8.41-13.79l-58.58,58.58L380.77,212c3.16-4.35,5.97-8.95,8.41-13.79
		l-44.79-44.79L389.18,108.63z"/>
	<linearGradient id="SVGID_9_" gradientUnits="userSpaceOnUse" x1="261.5795" y1="19.435" x2="435.3073" y2="193.1627">
		<stop  offset="0" style="stop-color:#BE782A"/>
		<stop  offset="0.0712" style="stop-color:#CA8A35"/>
		<stop  offset="0.1982" style="stop-color:#DEA94F"/>
		<stop  offset="0.3161" style="stop-color:#EEC265"/>
		<stop  offset="0.4203" style="stop-color:#FBD474"/>
		<stop  offset="0.5" style="stop-color:#FFDA79"/>
		<stop  offset="0.5797" style="stop-color:#FBD474"/>
		<stop  offset="0.6839" style="stop-color:#EEC265"/>
		<stop  offset="0.8018" style="stop-color:#DEA94F"/>
		<stop  offset="0.9288" style="stop-color:#CA8A35"/>
		<stop  offset="1" style="stop-color:#BE782A"/>
	</linearGradient>
	<path class="st11" d="M399.31,142.88c-0.67-6.35-1.95-12.51-3.74-18.45l-28.99,28.99l28.99,28.99c1.8-5.94,3.07-12.11,3.74-18.46
		c0.36-3.46,0.56-6.97,0.56-10.53C399.87,149.86,399.67,146.35,399.31,142.88z"/>
	<linearGradient id="SVGID_10_" gradientUnits="userSpaceOnUse" x1="186.4844" y1="94.5278" x2="360.2136" y2="268.257">
		<stop  offset="0" style="stop-color:#BE782A"/>
		<stop  offset="0.0712" style="stop-color:#CA8A35"/>
		<stop  offset="0.1982" style="stop-color:#DEA94F"/>
		<stop  offset="0.3161" style="stop-color:#EEC265"/>
		<stop  offset="0.4203" style="stop-color:#FBD474"/>
		<stop  offset="0.5" style="stop-color:#FFDA79"/>
		<stop  offset="0.5797" style="stop-color:#FBD474"/>
		<stop  offset="0.6839" style="stop-color:#EEC265"/>
		<stop  offset="0.8018" style="stop-color:#DEA94F"/>
		<stop  offset="0.9288" style="stop-color:#CA8A35"/>
		<stop  offset="1" style="stop-color:#BE782A"/>
	</linearGradient>
	<path class="st12" d="M215.82,99.83c-9.89,15.49-15.69,33.85-15.69,53.59c0,19.74,5.8,38.09,15.69,53.59
		c4.44,6.96,9.71,13.32,15.69,18.97c4.8,4.54,10.06,8.59,15.69,12.11V68.76c-5.63,3.52-10.89,7.57-15.69,12.11
		C225.53,86.51,220.25,92.87,215.82,99.83z"/>
</g>
<g>
	<linearGradient id="SVGID_11_" gradientUnits="userSpaceOnUse" x1="213.796" y1="67.2168" x2="387.5257" y2="240.9464">
		<stop  offset="0" style="stop-color:#BE782A"/>
		<stop  offset="0.0712" style="stop-color:#CA8A35"/>
		<stop  offset="0.1982" style="stop-color:#DEA94F"/>
		<stop  offset="0.3161" style="stop-color:#EEC265"/>
		<stop  offset="0.4203" style="stop-color:#FBD474"/>
		<stop  offset="0.5" style="stop-color:#FFDA79"/>
		<stop  offset="0.5797" style="stop-color:#FBD474"/>
		<stop  offset="0.6839" style="stop-color:#EEC265"/>
		<stop  offset="0.8018" style="stop-color:#DEA94F"/>
		<stop  offset="0.9288" style="stop-color:#CA8A35"/>
		<stop  offset="1" style="stop-color:#BE782A"/>
	</linearGradient>
	<path class="st13" d="M300,265.32c-61.7,0-111.9-50.2-111.9-111.89c0-61.7,50.2-111.9,111.9-111.9c61.7,0,111.9,50.2,111.9,111.9
		C411.9,215.12,361.7,265.32,300,265.32z M300,44.52c-60.04,0-108.9,48.85-108.9,108.9c0,60.04,48.85,108.89,108.9,108.89
		c60.05,0,108.9-48.85,108.9-108.89C408.9,93.38,360.05,44.52,300,44.52z"/>
</g>
</svg>
