<svg id="fce1eedc-efee-4bfe-824a-6a44c9299f69" data-name="Layer 1" xmlns="http://www.w3.org/2000/svg" viewBox="0 0 393.48 507.24"><defs><style>.be81c093-2845-4f6b-88a0-de6370cc5dc2{fill:#1d2755;}.acfce235-a0ac-43ac-aa5a-61598f0876fd{fill:#c3a979;}.a7379406-83d6-43c9-8cc5-06169d02d2ec{fill:#fff;}</style></defs><path class="be81c093-2845-4f6b-88a0-de6370cc5dc2" d="M213,293.3a95.71,95.71,0,0,1-14.73,1.75,95.83,95.83,0,0,0-24.1-187.37l1.9-.4A94.83,94.83,0,0,1,213,293.3Z"/><path class="be81c093-2845-4f6b-88a0-de6370cc5dc2" d="M190.41,295a94.84,94.84,0,0,1-23.86-185.37c1.22,0,2.43-.08,3.64-.08A93.83,93.83,0,0,1,190.41,295Z"/><path class="acfce235-a0ac-43ac-aa5a-61598f0876fd" d="M197.7,0V0h-1.93V0C87.47,1.08-2.1,89.19,0,197.7,2.46,320.82,175.38,486.34,195.77,505.45v1.79c.11-.09.44-.4,1-.89l1,.89v-1.79C218.1,486.34,391,320.82,393.44,197.7,395.57,89.19,306,1.08,197.7,0Zm-7.29,295a94.84,94.84,0,0,1-23.86-185.37c1.22,0,2.43-.08,3.64-.08A93.83,93.83,0,0,1,190.41,295ZM213,293.3a95.71,95.71,0,0,1-14.73,1.75,95.83,95.83,0,0,0-24.1-187.37l1.9-.4A94.83,94.83,0,0,1,213,293.3Z"/><path class="a7379406-83d6-43c9-8cc5-06169d02d2ec" d="M369.94,154.2c-3.6-19.8-12.25-35.52-23.12-42.06-23.49-14.11-42.76.59-46.39,3.68l-.11.1-.14,0c-12.34-1.1-21.48,8.95-21.86,9.38l-2.16,2.41,3.24.09c6.8.19,16.38,4.16,22.88,14.77a43.88,43.88,0,0,1,6,20.21l0,.52-.5-.17a31.2,31.2,0,0,0-9-1.63c-7.17-.22-19.63,2-32.75,16.28l2.13,2.13c12.35-13.49,23.9-15.61,30.52-15.4a27.9,27.9,0,0,1,9.42,1.95l.22.08v.24c-.05,11.63-3.46,24.66-10.14,38.72-7,14.66-15.79,27-26.21,36.8l-.11.1h-.15a85.38,85.38,0,0,1-10.64-1.26l-1,2.87c2.68.5,5.32.88,7.87,1.13l.82.08-.63.53a99.68,99.68,0,0,1-13.26,9.45l-4.57,7.64c13.78,3.4,26.91,4.58,39.06,3.46l4.3-.49c1.88-.26,3.6-.55,5.27-.88a87,87,0,0,0,14.51-4.21l4.37-1.84c13.74-6.22,26.18-16.27,36.95-29.88C372,207.24,373.92,176.1,369.94,154.2Zm-93.25,87.67A125.08,125.08,0,0,0,301,206.77c6.53-13.75,10-26.61,10.39-38.24l0-.59.51.3a24.36,24.36,0,0,1,9.58,9.9c7.1,13.85,5.09,32.19-5,45.63a47,47,0,0,1-28.83,17.57,59.88,59.88,0,0,1-10.72,1.12l-.86,0Zm75.79-14.76c-15,18.94-33.22,30.65-54.15,34.81-13.85,2.75-29.11,2.22-45.35-1.58l-.9-.2.81-.44q2.07-1.14,4.07-2.34a104.7,104.7,0,0,0,15.87-11.83l.11-.09h.14c26.18.9,39.94-12.06,45.81-19.86,10.78-14.34,12.9-34,5.29-48.81a28,28,0,0,0-12.6-12.12l-.19-.09v-.21c-.38-11.14-3.77-18.86-6.53-23.38-5-8.2-13-14.08-21.22-15.72l-.74-.15.59-.47c3.18-2.52,9.65-6.62,17.15-5.66l.72.1.52-.51c.19-.18,19.41-18.25,43.4-3.84,10.14,6.1,18.26,21.06,21.71,40C370.84,176,369.06,206.16,352.48,227.11Z"/><path class="a7379406-83d6-43c9-8cc5-06169d02d2ec" d="M145,263.75,140.07,265l4.76,1.64a167.8,167.8,0,0,0,48.55,7.21c3.9,0,7.93-.15,12-.49A124.27,124.27,0,0,0,239.15,266l-2.69-.7,1.28-1.89a116.84,116.84,0,0,1-17.49,4.88,134.55,134.55,0,0,1-15,2.09,164.81,164.81,0,0,1-53.1-4.73l-1.27-.33,1.26-.35c21.73-6.05,41.35-14.46,58.33-25l.21-.13.19.15c11.69,8.81,21.33,15.55,29.54,19.42l1.71-2.52c-7.79-3.58-17.14-10.06-28.33-18.47l-.4-.3.42-.27c1.31-.85,2.62-1.72,3.89-2.6,4.2-2.88,8.23-5.93,12-9l.24-.2.22.22c7.93,7.68,14.89,12.65,21.78,15.45l.72-3c-6.31-2.65-12.77-7.29-20.14-14.4l-.28-.27.29-.25h0a121,121,0,0,0,24.11-27.86l-.58-4.78c-.47.75-.94,1.5-1.4,2.28a116.24,116.24,0,0,1-24.32,28.27l-.25.21-.23-.23c-5.27-5.33-10.57-11.38-16.18-17.78-19.66-22.41-44.12-50.31-82.64-63.66a81.5,81.5,0,0,0-25.75-4.62,93.94,93.94,0,0,1,61.23-25.93q3.72-1.14,7.58-2a95.76,95.76,0,0,0-71.63,27.94c-18.71.49-36.78,8-53.29,22.39a135.92,135.92,0,0,0-29,35.87l-2.94,5.63,5.15-3.71c19-13.71,37.75-19.57,56-20.12A95.87,95.87,0,0,0,170,299.28a97.32,97.32,0,0,0,18.86-1.86,95.89,95.89,0,0,0,9.41-2.37c-2.62.11-5.23.1-7.82,0q-1,.22-2,.42A93.89,93.89,0,0,1,80.5,175.65c45.58-.4,87.84,31.86,121.35,57.44l5.8,4.42.41.31-.44.27C189.44,249.11,167.77,258,145,263.75Zm-65.5-91.12a95.38,95.38,0,0,0-16.89,1.8,103.61,103.61,0,0,0-34.91,14.22l-1.35.85.87-1.34a136.71,136.71,0,0,1,24-27.88C66.49,147,82.7,139.73,99.62,138.64A96.39,96.39,0,0,0,79.45,172.63Zm124.26,58.1,0,0-.3.39.28-.41c-23.2-17.71-52.07-39.76-83.2-50.8-13.61-4.83-26.49-7.23-39-7.27a94.27,94.27,0,0,1,10.66-21.35,95.67,95.67,0,0,1,10.25-12.75,78.45,78.45,0,0,1,27.67,4.54c37.77,13.09,60.93,39.5,81.36,62.79,5.57,6.36,10.84,12.37,16.1,17.71l.27.28-.29.24A170.82,170.82,0,0,1,211,236l-.21.13-.19-.15C208.35,234.27,206.05,232.51,203.71,230.73Z"/><path class="acfce235-a0ac-43ac-aa5a-61598f0876fd" d="M246.09,258.48c-8.51-3-19.12-10.21-32.27-20.08l-.4-.3.42-.27c1.31-.85,2.62-1.72,3.89-2.6,4.2-2.88,8.23-5.93,12-9l.24-.2.22.22c9.19,8.91,17.1,14.17,25.09,16.63.42-.92.83-1.84,1.22-2.77-7.56-2.24-15.09-7.22-23.95-15.77l-.28-.27.29-.25h0C243,214.7,251.3,205,257.27,195c1.75-2.94,3.51-5.59,5.26-8-.11-.6-.22-1.2-.34-1.79s-.31-1.43-.47-2.14a101.7,101.7,0,0,0-7,10.39,116.24,116.24,0,0,1-24.32,28.27l-.25.21-.23-.23c-5.27-5.33-10.57-11.38-16.18-17.78-19.66-22.41-44.12-50.31-82.64-63.66-2.67-.92-5.32-1.68-8-2.33-.73.84-1.44,1.7-2.15,2.57a86.63,86.63,0,0,1,9.14,2.6c37.77,13.09,60.93,39.5,81.36,62.79,5.57,6.36,10.84,12.37,16.1,17.71l.27.28-.29.24A170.82,170.82,0,0,1,211,236l-.21.13-.19-.15c-2.25-1.7-4.55-3.46-6.89-5.24l0,0-.3.39.28-.41c-23.2-17.71-52.07-39.76-83.2-50.8A134.73,134.73,0,0,0,103.09,175c-.26,1-.5,1.94-.73,2.91,37.18,7.66,71.41,33.78,99.49,55.22l5.8,4.42.41.31-.44.27c-18.18,11-39.85,19.89-62.67,25.66L140.07,265l4.76,1.64a167.8,167.8,0,0,0,48.55,7.21c3.9,0,7.93-.15,12-.49a124,124,0,0,0,35.1-7.9Q243.46,262.11,246.09,258.48Zm-40.81,11.87a164.81,164.81,0,0,1-53.1-4.73l-1.27-.33,1.26-.35c21.73-6.05,41.35-14.46,58.33-25l.21-.13.19.15c13,9.79,23.45,17,32.24,20.61l.77.31-.77.33a113.24,113.24,0,0,1-22.89,7A134.55,134.55,0,0,1,205.28,270.35Z"/><path class="acfce235-a0ac-43ac-aa5a-61598f0876fd" d="M264.15,184.77h0C271,176,277.71,170.84,283.65,168c-.34-1-.7-1.89-1.07-2.82C276.65,168,270,172.85,263.32,181,263.62,182.25,263.9,183.5,264.15,184.77Z"/><path class="acfce235-a0ac-43ac-aa5a-61598f0876fd" d="M265.89,262.69A128.93,128.93,0,0,1,253,260.34l-.9-.2.81-.44q2.07-1.14,4.07-2.34a104.7,104.7,0,0,0,15.87-11.83l.11-.09h.14c1.65.06,3.24.06,4.79,0,.56-1,1.09-2,1.6-3.09-.83,0-1.68.09-2.53.1l-.86,0,.61-.61c2-2,4-4.16,5.85-6.36,1.11-2.75,2.08-5.56,2.93-8.42a109.32,109.32,0,0,1-13.4,15.19l-.11.1h-.15a88.1,88.1,0,0,1-12.06-1.51l-1.3-.29c-.39.94-.8,1.88-1.23,2.8.65.16,1.31.31,2,.44,3,.58,6,1,8.83,1.3l.82.08-.63.53a100,100,0,0,1-19.91,13.1q-1.8,2.54-3.76,5c1.13-.5,2.25-1,3.35-1.53l.12-.06.12,0a137,137,0,0,0,15.33,3.16C264.28,264.51,265.09,263.61,265.89,262.69Z"/></svg>