<?xml version="1.0" encoding="utf-8"?>
<!-- Generator: Adobe Illustrator 25.0.0, SVG Export Plug-In . SVG Version: 6.00 Build 0)  -->
<svg version="1.1" id="Layer_1" xmlns="http://www.w3.org/2000/svg" xmlns:xlink="http://www.w3.org/1999/xlink" x="0px" y="0px"
	 viewBox="0 0 512 512" style="enable-background:new 0 0 512 512;" xml:space="preserve">
<style type="text/css">
	.st0{fill:#143547;}
</style>
<g id="Park">
	<path class="st0" d="M464,440h-56v-24h16c4.42,0,8-3.58,8-8v-32c0-4.42-3.58-8-8-8h-24v-16h8c4.42,0,8-3.58,8-8v-32
		c0-4.42-3.58-8-8-8H280c-4.42,0-8,3.58-8,8v32c0,4.42,3.58,8,8,8h8v16h-24c-4.42,0-8,3.58-8,8v32c0,4.42,3.58,8,8,8h16v24H160
		v-40.34c49.71-4.22,87.94-45.77,88-95.66c0.08-24.18-9.05-47.49-25.53-65.19c1.02-4.87,1.53-9.84,1.53-14.81
		c0.09-20.06-8.27-39.22-23.03-52.81c15-27.05,5.24-61.13-21.81-76.13c-27.05-15-61.13-5.24-76.13,21.81
		c-9.37,16.89-9.37,37.43,0,54.32C88.27,184.78,79.91,203.94,80,224c0,4.98,0.51,9.94,1.53,14.81C65.05,256.51,55.92,279.82,56,304
		c0.06,49.89,38.29,91.45,88,95.66V440H16c-4.42,0-8,3.58-8,8c0,4.42,3.58,8,8,8h448c4.42,0,8-3.58,8-8
		C472,443.58,468.42,440,464,440z M72,304c-0.07-21.48,8.57-42.07,23.95-57.07c2.08-2.04,2.88-5.05,2.1-7.86
		c-6.19-22.25,1.88-46.01,20.35-59.88c3.53-2.65,4.24-7.67,1.59-11.2c-13.25-17.68-9.65-42.75,8.03-56
		c17.68-13.25,42.75-9.65,56,8.03c10.65,14.22,10.65,33.75,0,47.97c-2.65,3.53-1.94,8.55,1.59,11.2
		c18.46,13.87,26.53,37.64,20.34,59.88c-0.79,2.81,0.02,5.82,2.1,7.86c31.53,30.95,31.99,81.59,1.05,113.12
		c-13.11,13.35-30.48,21.69-49.1,23.55V296c0-4.42-3.58-8-8-8c-4.42,0-8,3.58-8,8v41.87l-27.88-16.73
		c-3.79-2.27-8.7-1.04-10.98,2.74c-2.27,3.79-1.04,8.7,2.74,10.98L144,356.53v27.07C103.15,379.44,72.05,345.07,72,304z M288,320
		h112v16H288V320z M304,352h80v16h-80V352z M272,400v-16h144v16H272z M296,440v-24h96v24H296z"/>
</g>
</svg>
