<?xml version="1.0" encoding="utf-8"?>
<!-- Generator: Adobe Illustrator 25.0.0, SVG Export Plug-In . SVG Version: 6.00 Build 0)  -->
<svg version="1.1" id="Layer_1" xmlns="http://www.w3.org/2000/svg" xmlns:xlink="http://www.w3.org/1999/xlink" x="0px" y="0px"
	 viewBox="0 0 24 24" style="enable-background:new 0 0 24 24;" xml:space="preserve">
<style type="text/css">
	.st0{fill:#FFFFFF;}
	.st1{fill:#07651F;}
</style>
<circle class="st0" cx="12" cy="8" r="6"/>
<path class="st1" d="M12,0C7.8,0,4,3.4,4,7.6c0,4.2,3.47,9.21,8,16.4c4.53-7.19,8-12.2,8-16.4C20,3.4,16.2,0,12,0z M12,14
	c-3.31,0-6-2.69-6-6s2.69-6,6-6c3.31,0,6,2.69,6,6S15.31,14,12,14z"/>
<g id="Park">
	<path class="st1" d="M16.83,11.62h-1.21V11.1h0.34c0.09,0,0.17-0.08,0.17-0.17v-0.69c0-0.09-0.08-0.17-0.17-0.17h-0.52V9.72h0.17
		c0.1,0,0.17-0.08,0.17-0.17V8.86c0-0.1-0.08-0.17-0.17-0.17h-2.76c-0.1,0-0.17,0.08-0.17,0.17v0.69c0,0.09,0.08,0.17,0.17,0.17
		h0.17v0.35h-0.52c-0.1,0-0.17,0.08-0.17,0.17v0.69c0,0.1,0.08,0.17,0.17,0.17h0.34v0.52h-2.59v-0.87c1.07-0.09,1.9-0.99,1.9-2.06
		c0-0.52-0.2-1.02-0.55-1.4c0.02-0.11,0.03-0.21,0.03-0.32c0-0.43-0.18-0.85-0.5-1.14c0.32-0.58,0.11-1.32-0.47-1.64
		c-0.58-0.32-1.32-0.11-1.64,0.47c-0.2,0.36-0.2,0.81,0,1.17c-0.32,0.29-0.5,0.71-0.5,1.14c0,0.11,0.01,0.21,0.03,0.32
		c-0.35,0.38-0.55,0.88-0.55,1.4c0,1.08,0.83,1.97,1.9,2.06v0.87H7.17C7.08,11.62,7,11.7,7,11.79c0,0.09,0.08,0.17,0.17,0.17h9.65
		c0.1,0,0.17-0.08,0.17-0.17C17,11.7,16.92,11.62,16.83,11.62z M8.38,8.69c0-0.46,0.18-0.91,0.52-1.23
		c0.04-0.04,0.06-0.11,0.04-0.17C8.81,6.81,8.98,6.3,9.38,6c0.08-0.06,0.09-0.17,0.03-0.24C9.13,5.38,9.21,4.84,9.59,4.55
		c0.38-0.29,0.92-0.21,1.21,0.17c0.23,0.31,0.23,0.73,0,1.03C10.74,5.83,10.75,5.94,10.83,6c0.4,0.3,0.57,0.81,0.44,1.29
		c-0.02,0.06,0,0.13,0.04,0.17C11.99,8.13,12,9.22,11.33,9.9c-0.28,0.29-0.66,0.47-1.06,0.51V8.52c0-0.09-0.08-0.17-0.17-0.17
		S9.93,8.42,9.93,8.52v0.9l-0.6-0.36C9.25,9.01,9.14,9.04,9.09,9.12C9.04,9.2,9.07,9.31,9.15,9.36l0.78,0.47v0.58
		C9.05,10.32,8.38,9.57,8.38,8.69z M13.03,9.03h2.41v0.35h-2.41V9.03z M13.38,9.72h1.72v0.35h-1.72V9.72z M12.69,10.76v-0.34h3.1
		v0.34H12.69z M13.21,11.62V11.1h2.07v0.52H13.21z"/>
</g>
</svg>
