<?xml version="1.0" encoding="utf-8"?>
<!-- Generator: Adobe Illustrator 25.0.0, SVG Export Plug-In . SVG Version: 6.00 Build 0)  -->
<svg version="1.1" id="Layer_1" xmlns="http://www.w3.org/2000/svg" xmlns:xlink="http://www.w3.org/1999/xlink" x="0px" y="0px"
	 viewBox="0 0 24 24" style="enable-background:new 0 0 24 24;" xml:space="preserve">
<style type="text/css">
	.st0{fill:#FFFFFF;}
	.st1{fill:#5A0E31;}
</style>
<circle class="st0" cx="12" cy="8" r="6"/>
<path class="st1" d="M12,0C7.8,0,4,3.4,4,7.6c0,4.2,3.47,9.21,8,16.4c4.53-7.19,8-12.2,8-16.4C20,3.4,16.2,0,12,0z M12,14
	c-3.31,0-6-2.69-6-6s2.69-6,6-6c3.31,0,6,2.69,6,6S15.31,14,12,14z"/>
<path class="st1" d="M7.67,8.33h0.89c-0.07,0.19-0.02,0.4,0.13,0.54l1.37,1.25l0,0c0,0,0,0,0,0L12.22,12h-0.05
	C12.07,12,12,12.07,12,12.17v0.67c0,0.09,0.07,0.17,0.17,0.17h2c0.09,0,0.17-0.07,0.17-0.17v-0.67c0-0.09-0.07-0.17-0.17-0.17v-0.26
	l0.09-0.09c0.16-0.16,0.25-0.37,0.24-0.59v-1.02l0.6-1.33c0.05-0.12,0.06-0.25,0.02-0.37h1.21c0.28,0,0.5-0.22,0.5-0.5V7.5
	c0-0.09-0.07-0.17-0.17-0.17H16V7.17c0-1.93-1.57-3.5-3.5-3.5V3.33h0.17c0.09,0,0.17-0.07,0.17-0.17c0-0.09-0.07-0.17-0.17-0.17
	h-1.33c-0.09,0-0.17,0.07-0.17,0.17c0,0.09,0.07,0.17,0.17,0.17h0.17v0.33C9.57,3.67,8,5.24,8,7.17v0.17H7.33
	c-0.09,0-0.17,0.07-0.17,0.17v0.33C7.17,8.11,7.39,8.33,7.67,8.33z M8.87,8.44c0.02-0.06,0.09-0.11,0.16-0.11h0.1
	c0.06,0,0.12,0.04,0.15,0.1L9.4,8.71v0l0.28,0.62l-0.77-0.7C8.86,8.58,8.84,8.5,8.87,8.44z M14,12.67h-1.67v-0.33H14V12.67z
	 M14.79,8.41c0.03,0.05,0.04,0.11,0.01,0.16l-0.62,1.36c-0.01,0.02-0.01,0.04-0.01,0.07v1.06c0,0.13-0.05,0.26-0.15,0.35l-0.14,0.14
	c-0.03,0.03-0.05,0.07-0.05,0.12V12h-1.1L10.3,9.9L9.7,8.57c-0.04-0.08,0-0.18,0.08-0.22C9.8,8.34,9.83,8.33,9.85,8.33h0.11
	c0.06,0,0.12,0.04,0.15,0.09l0.58,1.15c0.02,0.04,0.05,0.06,0.09,0.08l1.67,0.67c0.03,0.01,0.07,0.02,0.1,0.01l0.67-0.17
	c0.05-0.01,0.08-0.04,0.11-0.08l0.91-1.66c0.03-0.05,0.09-0.09,0.15-0.09h0.29C14.71,8.33,14.76,8.36,14.79,8.41z M10.44,8.33h3.45
	l-0.83,1.52l-0.54,0.14l-1.56-0.62L10.44,8.33z M11.83,3.33h0.33v0.33h-0.33V3.33z M8.33,7.17C8.33,5.42,9.75,4,11.5,4h1
	c1.75,0,3.17,1.42,3.17,3.17v0.17H8.33V7.17z M7.5,7.67h9v0.17C16.5,7.93,16.43,8,16.33,8H7.67C7.57,8,7.5,7.93,7.5,7.83V7.67z"/>
</svg>
