<?xml version="1.0" encoding="utf-8"?>
<!-- Generator: Adobe Illustrator 25.0.0, SVG Export Plug-In . SVG Version: 6.00 Build 0)  -->
<svg version="1.1" id="Outline" xmlns="http://www.w3.org/2000/svg" xmlns:xlink="http://www.w3.org/1999/xlink" x="0px" y="0px"
	 viewBox="0 0 512 512" style="enable-background:new 0 0 512 512;" xml:space="preserve">
<style type="text/css">
	.st0{fill:#143547;stroke:#143547;stroke-width:2;stroke-miterlimit:10;}
</style>
<path class="st0" d="M48,272h42.52c-3.26,9.07-0.74,19.21,6.39,25.69l65.68,60.2l0.01-0.01c0.05,0.05,0.1,0.11,0.16,0.15L266.55,448
	H264c-4.42,0-8,3.58-8,8v32c0,4.42,3.58,8,8,8h96c4.42,0,8-3.58,8-8v-32c0-4.42-3.58-8-8-8v-12.69l4.28-4.28
	c7.53-7.48,11.75-17.67,11.72-28.28v-49.01l29-63.8c2.58-5.65,2.86-12.08,0.78-17.93H464c13.25-0.02,23.99-10.75,24-24v-16
	c0-4.42-3.58-8-8-8h-32v-8c0-92.64-75.36-168-168-168V32h8c4.42,0,8-3.58,8-8c0-4.42-3.58-8-8-8h-64c-4.42,0-8,3.58-8,8
	c0,4.42,3.58,8,8,8h8v16c-92.64,0-168,75.36-168,168v8H32c-4.42,0-8,3.58-8,8v16C24.02,261.25,34.75,271.98,48,272z M105.68,277.1
	c1.15-3.11,4.14-5.15,7.46-5.1h4.57c3.14,0,5.98,1.84,7.28,4.69l6.01,13.23v0.01l13.48,29.66l-36.75-33.69
	C105.25,283.7,104.43,280.17,105.68,277.1z M352,480h-80v-16h80V480z M389.88,275.67c1.5,2.28,1.71,5.17,0.56,7.64l-29.72,65.38
	c-0.47,1.04-0.72,2.17-0.72,3.31v50.75c0.02,6.37-2.51,12.48-7.03,16.97l-6.63,6.63c-1.5,1.5-2.34,3.54-2.34,5.66v16h-53.02
	L174.56,347.1l-29-63.79c-1.83-4.02-0.05-8.76,3.97-10.59c1.04-0.47,2.17-0.72,3.32-0.72h5.26c3.03-0.01,5.81,1.7,7.16,4.42
	l27.58,55.16c0.88,1.75,2.36,3.12,4.18,3.85l80,32c1.56,0.62,3.28,0.74,4.91,0.33l32-8c2.17-0.54,4.01-1.97,5.08-3.93l43.45-79.66
	c1.4-2.57,4.1-4.17,7.02-4.17h13.65C385.88,271.97,388.42,273.36,389.88,275.67z M180.94,272h165.58l-39.87,73.09l-26.09,6.52
	L205.8,321.7L180.94,272z M248,32h16v16h-16V32z M80,216c0-83.81,68.19-152,152-152h48c83.81,0,152,68.19,152,152v8H80V216z M40,240
	h432v8c0,4.42-3.58,8-8,8H48c-4.42,0-8-3.58-8-8V240z"/>
</svg>
