<?xml version="1.0" encoding="utf-8"?>
<!-- Generator: Adobe Illustrator 25.0.0, SVG Export Plug-In . SVG Version: 6.00 Build 0)  -->
<svg version="1.1" id="Layer_1" xmlns="http://www.w3.org/2000/svg" xmlns:xlink="http://www.w3.org/1999/xlink" x="0px" y="0px"
	 viewBox="0 0 24 24" style="enable-background:new 0 0 24 24;" xml:space="preserve">
<style type="text/css">
	.st0{fill:#FFFFFF;}
	.st1{fill:#095360;}
</style>
<circle class="st0" cx="12" cy="8" r="6"/>
<path class="st1" d="M12,0C7.8,0,4,3.4,4,7.6c0,4.2,3.47,9.21,8,16.4c4.53-7.19,8-12.2,8-16.4C20,3.4,16.2,0,12,0z M12,14
	c-3.31,0-6-2.69-6-6s2.69-6,6-6c3.31,0,6,2.69,6,6S15.31,14,12,14z"/>
<path class="st1" d="M16.91,6.73l-4.84-2.58c-0.05-0.02-0.1-0.02-0.15,0L7.09,6.73C7.03,6.76,7,6.81,7,6.87s0.03,0.11,0.09,0.14
	l1.37,0.73v2.03h0.32V7.91l0.48,0.26v0.98C8.98,9.22,8.77,9.47,8.77,9.77c0,0.15,0.05,0.28,0.14,0.39c-0.09,0.3-0.14,0.61-0.14,0.93
	v0.46c0,0.06,0.03,0.12,0.09,0.14l0.18,0.09c0.12,0.06,0.25,0.09,0.38,0.09c0.13,0,0.26-0.03,0.38-0.09l0.18-0.09
	c0.05-0.03,0.09-0.08,0.09-0.14v-0.46c0-0.31-0.05-0.63-0.13-0.93c0.08-0.11,0.13-0.24,0.13-0.39c0-0.3-0.21-0.55-0.48-0.62V8.34
	l2.34,1.25c0.02,0.01,0.05,0.02,0.08,0.02c0.03,0,0.05-0.01,0.08-0.02l3.15-1.68v1.78c-0.9,0.68-2,1.05-3.13,1.05H11.9
	c-0.55,0-1.1-0.09-1.63-0.26l-0.1,0.31c0.56,0.18,1.14,0.28,1.73,0.28h0.19c1.22,0,2.42-0.41,3.39-1.16
	c0.04-0.03,0.06-0.08,0.06-0.13V7.74l1.37-0.73C16.97,6.98,17,6.93,17,6.87S16.97,6.76,16.91,6.73z M9.74,11.45l-0.09,0.04
	c-0.14,0.07-0.32,0.07-0.47,0L9.1,11.45v-0.36c0-0.24,0.03-0.48,0.09-0.72c0.07,0.03,0.15,0.05,0.24,0.05
	c0.08,0,0.16-0.02,0.23-0.05c0.06,0.23,0.09,0.47,0.09,0.72V11.45z M9.74,9.77c0,0.18-0.14,0.32-0.32,0.32
	c-0.18,0-0.32-0.14-0.32-0.32c0-0.18,0.15-0.32,0.32-0.32C9.6,9.45,9.74,9.6,9.74,9.77z M12,9.27L9.69,8.04l2-1.07
	c0.09,0.04,0.2,0.06,0.31,0.06c0.36,0,0.65-0.21,0.65-0.48c0-0.27-0.28-0.48-0.65-0.48c-0.36,0-0.65,0.21-0.65,0.48
	c0,0.07,0.02,0.14,0.06,0.2l-2.07,1.1L7.5,6.87l4.5-2.4l4.5,2.4L12,9.27z M11.68,6.55c0-0.07,0.13-0.16,0.32-0.16
	c0.2,0,0.32,0.1,0.32,0.16c0,0.07-0.13,0.16-0.32,0.16C11.8,6.71,11.68,6.61,11.68,6.55z"/>
</svg>
