<?xml version="1.0" encoding="utf-8"?>
<!-- Generator: Adobe Illustrator 25.0.0, SVG Export Plug-In . SVG Version: 6.00 Build 0)  -->
<svg version="1.1" id="Layer_3" xmlns="http://www.w3.org/2000/svg" xmlns:xlink="http://www.w3.org/1999/xlink" x="0px" y="0px"
	 viewBox="0 0 512 512" style="enable-background:new 0 0 512 512;" xml:space="preserve">
<style type="text/css">
	.st0{fill:#143547;stroke:#143547;stroke-width:2;stroke-miterlimit:10;}
</style>
<path class="st0" d="M499.77,192.94l-240-128c-2.36-1.26-5.17-1.26-7.53,0l-240,128C9.62,194.34,8,197.05,8,200
	c0,2.95,1.62,5.66,4.23,7.06L80,243.2V344h16v-92.26l24,12.8v48.6c-13.77,3.58-24,15.99-24,30.86c0,7.31,2.56,13.98,6.7,19.38
	c-4.37,14.94-6.7,30.34-6.7,45.92V432c0,3.03,1.71,5.8,4.42,7.16l8.84,4.42c5.79,2.89,12.26,4.42,18.74,4.42
	c6.47,0,12.94-1.53,18.74-4.42l8.84-4.42c2.71-1.35,4.42-4.12,4.42-7.15v-22.7c0-15.58-2.34-30.98-6.7-45.92
	c4.14-5.4,6.7-12.06,6.7-19.38c0-14.87-10.23-27.29-24-30.86v-40.06l116.23,61.99c1.18,0.62,2.47,0.94,3.77,0.94
	c1.3,0,2.58-0.31,3.77-0.94L416,251.74v88.31C371.5,373.58,316.54,392,260.79,392h-9.58c-27.46,0-54.62-4.36-80.71-12.96l-5,15.2
	c27.7,9.13,56.54,13.76,85.7,13.76h9.58c60.59,0,120.3-20.49,168.13-57.69c1.94-1.51,3.09-3.84,3.09-6.31V243.2l67.77-36.14
	c2.61-1.39,4.23-4.1,4.23-7.06C504,197.05,502.38,194.34,499.77,192.94z M144,427.06l-4.42,2.21c-7.16,3.58-16,3.58-23.16,0
	l-4.42-2.21V409.3c0-12.02,1.46-23.94,4.35-35.57c3.62,1.42,7.53,2.27,11.65,2.27s8.03-0.85,11.65-2.27
	c2.89,11.63,4.35,23.54,4.35,35.57V427.06z M144,344c0,8.82-7.18,16-16,16c-8.82,0-16-7.18-16-16c0-8.82,7.18-16,16-16
	C136.82,328,144,335.18,144,344z M256,318.93l-114.5-61.06l99.11-52.86c4.55,1.86,9.74,2.99,15.38,2.99c17.94,0,32-10.54,32-24
	c0-13.46-14.06-24-32-24c-17.94,0-32,10.54-32,24c0,3.66,1.11,7.06,2.98,10.14L124.5,248.8L33,200L256,81.06L479,200L256,318.93z
	 M240,184c0-3.26,6.23-8,16-8c9.77,0,16,4.74,16,8c0,3.26-6.23,8-16,8C246.23,192,240,187.26,240,184z"/>
</svg>
