<?xml version="1.0" encoding="utf-8"?>
<!-- Generator: Adobe Illustrator 25.0.0, SVG Export Plug-In . SVG Version: 6.00 Build 0)  -->
<svg version="1.1" id="Layer_1" xmlns="http://www.w3.org/2000/svg" xmlns:xlink="http://www.w3.org/1999/xlink" x="0px" y="0px"
	 viewBox="0 0 24 24" style="enable-background:new 0 0 24 24;" xml:space="preserve">
<style type="text/css">
	.st0{fill:#FFFFFF;}
	.st1{fill:#5F0550;}
</style>
<circle class="st0" cx="12" cy="8" r="6"/>
<path class="st1" d="M12,0C7.8,0,4,3.4,4,7.6c0,4.2,3.47,9.21,8,16.4c4.53-7.19,8-12.2,8-16.4C20,3.4,16.2,0,12,0z M12,14
	c-3.31,0-6-2.69-6-6s2.69-6,6-6c3.31,0,6,2.69,6,6S15.31,14,12,14z"/>
<g>
	<g>
		<path class="st1" d="M9.32,12.5c-0.17-0.02-0.35-0.1-0.49-0.23c-0.14-0.13-0.22-0.31-0.22-0.51V11.7l0.48-5.38
			c0.02-0.21,0.11-0.4,0.25-0.55c0.15-0.15,0.34-0.23,0.54-0.23h0.51V5.11c0-0.44,0.17-0.84,0.47-1.13c0.3-0.31,0.7-0.47,1.13-0.47
			c0.43,0,0.83,0.17,1.13,0.47c0.31,0.3,0.47,0.7,0.47,1.13v0.45h0.51c0.21,0,0.39,0.08,0.54,0.23c0.14,0.14,0.23,0.33,0.25,0.55
			l0.48,5.37v0.06c0,0.2-0.08,0.38-0.22,0.52c-0.14,0.13-0.32,0.21-0.5,0.23H9.32z M9.14,11.97c0.06,0.06,0.14,0.1,0.23,0.11h0h5.25
			h0c0.08-0.01,0.17-0.05,0.22-0.11c0.06-0.05,0.09-0.12,0.09-0.2v-0.02l-0.48-5.38c-0.01-0.1-0.06-0.2-0.13-0.27
			C14.26,6.03,14.18,6,14.1,6h-0.51v1.14c0,0.12-0.1,0.22-0.22,0.22c-0.12,0-0.22-0.1-0.22-0.22V6h-2.33v1.14
			c0,0.12-0.1,0.22-0.22,0.22c-0.12,0-0.22-0.1-0.22-0.22V6H9.88C9.8,6,9.72,6.03,9.65,6.1C9.58,6.17,9.54,6.27,9.53,6.37
			l-0.48,5.37v0.03C9.05,11.85,9.08,11.92,9.14,11.97z M12.01,3.93c-0.31,0-0.61,0.12-0.83,0.34c-0.22,0.22-0.34,0.52-0.34,0.83
			v0.45h2.34V5.11c0-0.31-0.12-0.61-0.34-0.83C12.62,4.06,12.32,3.93,12.01,3.93z"/>
	</g>
</g>
</svg>
