<?xml version="1.0" encoding="utf-8"?>
<!-- Generator: Adobe Illustrator 25.0.0, SVG Export Plug-In . SVG Version: 6.00 Build 0)  -->
<svg version="1.1" id="Capa_1" xmlns="http://www.w3.org/2000/svg" xmlns:xlink="http://www.w3.org/1999/xlink" x="0px" y="0px"
	 viewBox="0 0 648 648" style="enable-background:new 0 0 648 648;" xml:space="preserve">
<style type="text/css">
	.st0{fill:#143547;}
</style>
<g>
	<g>
		<path class="st0" d="M133.98,646c-12.49-1.21-25.28-7.17-35.13-16.36c-9.92-9.3-15.61-22.51-15.61-36.24v-4.46l34.44-384.68
			c1.26-15.09,7.51-28.95,17.62-39.06c10.67-10.67,24.12-16.31,38.88-16.31h36.45v-31.9c0-31.14,12.02-59.95,33.84-81.11
			C265.67,14.02,294.48,2,325.62,2c30.48,0,59.29,12.03,81.13,33.86c21.84,21.18,33.86,49.99,33.86,81.13v31.9h36.45
			c14.77,0,28.21,5.64,38.88,16.31c10.11,10.11,16.36,23.97,17.62,39.05L568,588.29v4.46c0,14.35-5.55,27.45-15.62,36.89
			c-10.01,9.34-22.71,15.15-35.77,16.36H133.98z M120.83,607.88c4.29,4.27,10,6.99,16.08,7.66l0.11,0.01h375.91l0.12-0.02
			c5.89-0.74,12.03-3.67,16.05-7.66c4.25-3.58,6.5-8.58,6.5-14.48v-1.39l-34.45-384.86c-0.66-7.28-3.95-14.36-9.03-19.44
			c-4.57-4.57-10.38-7.09-16.36-7.09h-36.45v81.29c0,8.57-6.98,15.55-15.55,15.55c-8.57,0-15.55-6.98-15.55-15.55v-81.29H241.72
			v81.29c0,8.57-6.97,15.55-15.55,15.55c-8.57,0-15.55-6.98-15.55-15.55v-81.29h-36.45c-5.98,0-11.79,2.52-16.36,7.09
			c-5.08,5.08-8.37,12.16-9.03,19.43l-34.46,384.21v2.04C114.33,599.3,116.58,604.3,120.83,607.88z M326.27,33.1
			c-22.33,0-43.37,8.75-59.26,24.63c-15.89,15.88-24.63,36.93-24.63,59.26v31.9h167.79v-31.9c0-22.33-8.75-43.38-24.63-59.26
			C369.64,41.85,348.6,33.1,326.27,33.1z"/>
	</g>
</g>
</svg>
